<mxfile host="app.diagrams.net" modified="2023-09-26T22:02:03.607Z" agent="Mozilla/5.0 (Windows NT 10.0; Win64; x64) AppleWebKit/537.36 (KHTML, like Gecko) Chrome/117.0.0.0 Safari/537.36" etag="QrwRTHV637CCGMHzAV7h" version="21.8.2" type="onedrive">
  <diagram name="Page-1" id="JVm7u9N-YNvE_14nnLl3">
    <mxGraphModel dx="2869" dy="1118" grid="1" gridSize="10" guides="1" tooltips="1" connect="1" arrows="1" fold="1" page="1" pageScale="1" pageWidth="850" pageHeight="1100" math="0" shadow="0">
      <root>
        <mxCell id="0" />
        <mxCell id="1" parent="0" />
        <mxCell id="Uy60rt149ztIAtctRhgy-58" value="" style="html=1;dropTarget=0;whiteSpace=wrap;" parent="1" vertex="1">
          <mxGeometry x="-50" y="505" width="290" height="315" as="geometry" />
        </mxCell>
        <mxCell id="Uy60rt149ztIAtctRhgy-59" value="" style="shape=module;jettyWidth=8;jettyHeight=4;" parent="Uy60rt149ztIAtctRhgy-58" vertex="1">
          <mxGeometry x="1" width="20" height="20" relative="1" as="geometry">
            <mxPoint x="-27" y="7" as="offset" />
          </mxGeometry>
        </mxCell>
        <mxCell id="Uy60rt149ztIAtctRhgy-56" value="&amp;laquo;Annotation&amp;raquo;&lt;br/&gt;&lt;b&gt;Component&lt;/b&gt;" style="html=1;dropTarget=0;whiteSpace=wrap;" parent="1" vertex="1">
          <mxGeometry x="-40" y="1000" width="290" height="220" as="geometry" />
        </mxCell>
        <mxCell id="Uy60rt149ztIAtctRhgy-57" value="" style="shape=module;jettyWidth=8;jettyHeight=4;" parent="Uy60rt149ztIAtctRhgy-56" vertex="1">
          <mxGeometry x="1" width="20" height="20" relative="1" as="geometry">
            <mxPoint x="-27" y="7" as="offset" />
          </mxGeometry>
        </mxCell>
        <mxCell id="Uy60rt149ztIAtctRhgy-2" value="Edge Client" style="shape=folder;fontStyle=1;spacingTop=10;tabWidth=40;tabHeight=14;tabPosition=left;html=1;whiteSpace=wrap;verticalAlign=top;" parent="1" vertex="1">
          <mxGeometry x="300" y="290" width="1540" height="1010" as="geometry" />
        </mxCell>
        <mxCell id="Uy60rt149ztIAtctRhgy-11" value="&lt;p style=&quot;margin:0px;margin-top:4px;text-align:center;&quot;&gt;&lt;b&gt;RESTClient&lt;/b&gt;&lt;/p&gt;&lt;hr size=&quot;1&quot;&gt;&lt;p style=&quot;margin:0px;margin-left:4px;&quot;&gt;+ endpointInt: URL&lt;br&gt;&lt;/p&gt;&lt;p style=&quot;margin:0px;margin-left:4px;&quot;&gt;+ endpointExt: URL&lt;/p&gt;&lt;hr size=&quot;1&quot;&gt;&lt;p style=&quot;margin:0px;margin-left:4px;&quot;&gt;+ put(&amp;lt;METHOD, URL&amp;gt;, JSON): ResponseCode&lt;br&gt;&lt;/p&gt;&lt;p style=&quot;margin:0px;margin-left:4px;&quot;&gt;+ get(&amp;lt;METHOD, URL&amp;gt;, JSON): JSON[]&lt;/p&gt;&lt;p style=&quot;margin:0px;margin-left:4px;&quot;&gt;+ post(&amp;lt;METHOD, URL&amp;gt;, JSON)&lt;/p&gt;" style="verticalAlign=top;align=left;overflow=fill;fontSize=12;fontFamily=Helvetica;html=1;whiteSpace=wrap;" parent="1" vertex="1">
          <mxGeometry x="610" y="1110" width="310" height="140" as="geometry" />
        </mxCell>
        <mxCell id="Uy60rt149ztIAtctRhgy-12" value="&lt;p style=&quot;margin:0px;margin-top:4px;text-align:center;&quot;&gt;&lt;b&gt;RESTServer&lt;/b&gt;&lt;/p&gt;&lt;hr size=&quot;1&quot;&gt;&lt;p style=&quot;margin:0px;margin-left:4px;&quot;&gt;+ ifaces: Iface[]&lt;br&gt;&lt;/p&gt;&lt;hr size=&quot;1&quot;&gt;&lt;p style=&quot;margin:0px;margin-left:4px;&quot;&gt;+ edit(Iface): type&lt;/p&gt;&lt;p style=&quot;margin:0px;margin-left:4px;&quot;&gt;+ update(Iface)&lt;/p&gt;" style="verticalAlign=top;align=left;overflow=fill;fontSize=12;fontFamily=Helvetica;html=1;whiteSpace=wrap;" parent="1" vertex="1">
          <mxGeometry x="520" y="570" width="160" height="90" as="geometry" />
        </mxCell>
        <mxCell id="Uy60rt149ztIAtctRhgy-13" value="&lt;p style=&quot;margin:0px;margin-top:4px;text-align:center;&quot;&gt;&lt;b&gt;AASRestServer&lt;/b&gt;&lt;/p&gt;&lt;hr size=&quot;1&quot;&gt;&lt;p style=&quot;margin:0px;margin-left:4px;&quot;&gt;+ field: Type&lt;/p&gt;&lt;hr size=&quot;1&quot;&gt;&lt;p style=&quot;margin:0px;margin-left:4px;&quot;&gt;+ method(): Type&lt;/p&gt;" style="verticalAlign=top;align=left;overflow=fill;fontSize=12;fontFamily=Helvetica;html=1;whiteSpace=wrap;" parent="1" vertex="1">
          <mxGeometry x="20" y="1070" width="160" height="90" as="geometry" />
        </mxCell>
        <mxCell id="Uy60rt149ztIAtctRhgy-49" style="edgeStyle=orthogonalEdgeStyle;rounded=0;orthogonalLoop=1;jettySize=auto;html=1;entryX=1;entryY=0.5;entryDx=0;entryDy=0;" parent="1" source="Uy60rt149ztIAtctRhgy-14" target="Uy60rt149ztIAtctRhgy-11" edge="1">
          <mxGeometry relative="1" as="geometry" />
        </mxCell>
        <mxCell id="Uy60rt149ztIAtctRhgy-51" value="owns" style="edgeLabel;html=1;align=center;verticalAlign=middle;resizable=0;points=[];" parent="Uy60rt149ztIAtctRhgy-49" connectable="0" vertex="1">
          <mxGeometry x="0.1907" y="1" relative="1" as="geometry">
            <mxPoint as="offset" />
          </mxGeometry>
        </mxCell>
        <mxCell id="Uy60rt149ztIAtctRhgy-14" value="&lt;p style=&quot;margin:0px;margin-top:4px;text-align:center;&quot;&gt;&lt;b&gt;LocalWebEventHandler&lt;/b&gt;&lt;/p&gt;&lt;hr size=&quot;1&quot;&gt;&lt;p style=&quot;margin:0px;margin-left:4px;&quot;&gt;+ localDnsUrl: Type&lt;/p&gt;&lt;hr size=&quot;1&quot;&gt;&lt;p style=&quot;margin:0px;margin-left:4px;&quot;&gt;+ method(): Type&lt;/p&gt;" style="verticalAlign=top;align=left;overflow=fill;fontSize=12;fontFamily=Helvetica;html=1;whiteSpace=wrap;" parent="1" vertex="1">
          <mxGeometry x="1280" y="1130" width="170" height="100" as="geometry" />
        </mxCell>
        <mxCell id="Uy60rt149ztIAtctRhgy-26" style="edgeStyle=orthogonalEdgeStyle;rounded=0;orthogonalLoop=1;jettySize=auto;html=1;entryX=1;entryY=0.5;entryDx=0;entryDy=0;" parent="1" source="Uy60rt149ztIAtctRhgy-15" target="Uy60rt149ztIAtctRhgy-19" edge="1">
          <mxGeometry relative="1" as="geometry" />
        </mxCell>
        <mxCell id="Uy60rt149ztIAtctRhgy-27" value="owns" style="edgeLabel;html=1;align=center;verticalAlign=middle;resizable=0;points=[];" parent="Uy60rt149ztIAtctRhgy-26" connectable="0" vertex="1">
          <mxGeometry x="0.3111" relative="1" as="geometry">
            <mxPoint as="offset" />
          </mxGeometry>
        </mxCell>
        <mxCell id="Uy60rt149ztIAtctRhgy-15" value="&lt;p style=&quot;margin:0px;margin-top:4px;text-align:center;&quot;&gt;&lt;i&gt;&amp;lt;&amp;lt;Interface&amp;gt;&amp;gt;&lt;/i&gt;&lt;br&gt;&lt;b&gt;EventHandler&lt;/b&gt;&lt;/p&gt;&lt;hr size=&quot;1&quot;&gt;&lt;p style=&quot;margin:0px;margin-left:4px;&quot;&gt;+ field1: Type&lt;br&gt;+ field2: Type&lt;/p&gt;&lt;hr size=&quot;1&quot;&gt;&lt;p style=&quot;margin:0px;margin-left:4px;&quot;&gt;+ handleEvent(Type): Type&lt;br&gt;+ getHandle(): EventHandler&lt;/p&gt;" style="verticalAlign=top;align=left;overflow=fill;fontSize=12;fontFamily=Helvetica;html=1;whiteSpace=wrap;" parent="1" vertex="1">
          <mxGeometry x="1440" y="800" width="190" height="140" as="geometry" />
        </mxCell>
        <mxCell id="Uy60rt149ztIAtctRhgy-18" value="" style="endArrow=block;dashed=1;endFill=0;endSize=12;html=1;rounded=0;entryX=0.75;entryY=1;entryDx=0;entryDy=0;exitX=0.5;exitY=0;exitDx=0;exitDy=0;" parent="1" source="Uy60rt149ztIAtctRhgy-14" target="Uy60rt149ztIAtctRhgy-15" edge="1">
          <mxGeometry width="160" relative="1" as="geometry">
            <mxPoint x="650" y="740" as="sourcePoint" />
            <mxPoint x="810" y="740" as="targetPoint" />
          </mxGeometry>
        </mxCell>
        <mxCell id="Uy60rt149ztIAtctRhgy-22" style="edgeStyle=orthogonalEdgeStyle;rounded=0;orthogonalLoop=1;jettySize=auto;html=1;entryX=0.75;entryY=0;entryDx=0;entryDy=0;" parent="1" source="Uy60rt149ztIAtctRhgy-20" target="Uy60rt149ztIAtctRhgy-21" edge="1">
          <mxGeometry relative="1" as="geometry">
            <Array as="points" />
          </mxGeometry>
        </mxCell>
        <mxCell id="Uy60rt149ztIAtctRhgy-23" value="uses" style="edgeLabel;html=1;align=center;verticalAlign=middle;resizable=0;points=[];" parent="Uy60rt149ztIAtctRhgy-22" connectable="0" vertex="1">
          <mxGeometry x="-0.3412" y="2" relative="1" as="geometry">
            <mxPoint as="offset" />
          </mxGeometry>
        </mxCell>
        <mxCell id="Uy60rt149ztIAtctRhgy-28" style="edgeStyle=orthogonalEdgeStyle;rounded=0;orthogonalLoop=1;jettySize=auto;html=1;exitX=1;exitY=0.75;exitDx=0;exitDy=0;" parent="1" source="Uy60rt149ztIAtctRhgy-20" target="Uy60rt149ztIAtctRhgy-15" edge="1">
          <mxGeometry relative="1" as="geometry" />
        </mxCell>
        <mxCell id="Uy60rt149ztIAtctRhgy-29" value="handlers" style="edgeLabel;html=1;align=center;verticalAlign=middle;resizable=0;points=[];" parent="Uy60rt149ztIAtctRhgy-28" connectable="0" vertex="1">
          <mxGeometry x="0.1238" y="1" relative="1" as="geometry">
            <mxPoint as="offset" />
          </mxGeometry>
        </mxCell>
        <mxCell id="Uy60rt149ztIAtctRhgy-20" value="&lt;p style=&quot;margin:0px;margin-top:4px;text-align:center;&quot;&gt;&lt;b&gt;Reactor&lt;/b&gt;&lt;/p&gt;&lt;hr size=&quot;1&quot;&gt;&lt;p style=&quot;margin:0px;margin-left:4px;&quot;&gt;+ events: HTTPRequest[]&lt;br&gt;&lt;/p&gt;&lt;p style=&quot;margin:0px;margin-left:4px;&quot;&gt;+ handlers: EventHandler[]&lt;/p&gt;&lt;hr size=&quot;1&quot;&gt;&lt;p style=&quot;margin:0px;margin-left:4px;&quot;&gt;+ handleEvents(Event): Type&lt;br&gt;+ registerHandler(EventHandler):&lt;/p&gt;&lt;p style=&quot;margin:0px;margin-left:4px;&quot;&gt;+ removeHandler(EventHandler):&lt;/p&gt;" style="verticalAlign=top;align=left;overflow=fill;fontSize=12;fontFamily=Helvetica;html=1;whiteSpace=wrap;" parent="1" vertex="1">
          <mxGeometry x="870" y="600" width="190" height="140" as="geometry" />
        </mxCell>
        <mxCell id="Uy60rt149ztIAtctRhgy-24" style="edgeStyle=orthogonalEdgeStyle;rounded=0;orthogonalLoop=1;jettySize=auto;html=1;exitX=1;exitY=0.5;exitDx=0;exitDy=0;entryX=0;entryY=0.5;entryDx=0;entryDy=0;" parent="1" source="Uy60rt149ztIAtctRhgy-21" target="Uy60rt149ztIAtctRhgy-19" edge="1">
          <mxGeometry relative="1" as="geometry" />
        </mxCell>
        <mxCell id="Uy60rt149ztIAtctRhgy-25" value="notifies" style="edgeLabel;html=1;align=center;verticalAlign=middle;resizable=0;points=[];" parent="Uy60rt149ztIAtctRhgy-24" connectable="0" vertex="1">
          <mxGeometry x="-0.0857" y="-1" relative="1" as="geometry">
            <mxPoint as="offset" />
          </mxGeometry>
        </mxCell>
        <mxCell id="Uy60rt149ztIAtctRhgy-21" value="&lt;p style=&quot;margin:0px;margin-top:4px;text-align:center;&quot;&gt;&lt;b style=&quot;background-color: initial;&quot;&gt;EventDemux&lt;/b&gt;&lt;br&gt;&lt;/p&gt;&lt;hr size=&quot;1&quot;&gt;&lt;p style=&quot;margin:0px;margin-left:4px;&quot;&gt;+ field: Type&amp;lt;METHOD,URL&amp;gt;&lt;/p&gt;&lt;hr size=&quot;1&quot;&gt;&lt;p style=&quot;margin:0px;margin-left:4px;&quot;&gt;+ select(): HTTPRequest&lt;/p&gt;" style="verticalAlign=top;align=left;overflow=fill;fontSize=12;fontFamily=Helvetica;html=1;whiteSpace=wrap;" parent="1" vertex="1">
          <mxGeometry x="570" y="820" width="190" height="100" as="geometry" />
        </mxCell>
        <mxCell id="Uy60rt149ztIAtctRhgy-31" style="edgeStyle=orthogonalEdgeStyle;rounded=0;orthogonalLoop=1;jettySize=auto;html=1;entryX=0;entryY=0.5;entryDx=0;entryDy=0;" parent="1" source="Uy60rt149ztIAtctRhgy-30" target="Uy60rt149ztIAtctRhgy-21" edge="1">
          <mxGeometry relative="1" as="geometry" />
        </mxCell>
        <mxCell id="Uy60rt149ztIAtctRhgy-30" value="&lt;font color=&quot;#adadad&quot;&gt;Wait for event sources and returns events.&lt;br&gt;&amp;nbsp;The select functions get set of IO resources to monitor, and returns when one or more of them is ready for IO read/write.&lt;/font&gt;" style="shape=note;size=20;whiteSpace=wrap;html=1;align=left;" parent="1" vertex="1">
          <mxGeometry x="360" y="830" width="170" height="120" as="geometry" />
        </mxCell>
        <mxCell id="Uy60rt149ztIAtctRhgy-32" value="&lt;div style=&quot;text-align: left;&quot;&gt;&lt;font color=&quot;#bfbfbf&quot;&gt;&lt;span style=&quot;font-size: 14px; background-color: initial;&quot;&gt;running the EventLoop (which calls the&amp;nbsp;&lt;/span&gt;&lt;code style=&quot;font-size: 14px; background-color: rgb(255, 255, 255);&quot; class=&quot;language-plaintext highlighter-rouge&quot;&gt;Synchronous Event Demultiplexer&lt;/code&gt;&lt;span style=&quot;font-size: 14px; font-family: &amp;quot;Open Sans&amp;quot;, sans-serif; background-color: rgb(255, 255, 255);&quot;&gt;). On the Event Loop, after the&amp;nbsp;&lt;/span&gt;&lt;strong style=&quot;font-size: 14px; font-family: &amp;quot;Open Sans&amp;quot;, sans-serif; background-color: rgb(255, 255, 255);&quot;&gt;Synchronous Event Demultiplexer&lt;/strong&gt;&lt;span style=&quot;font-size: 14px; font-family: &amp;quot;Open Sans&amp;quot;, sans-serif; background-color: rgb(255, 255, 255);&quot;&gt;&amp;nbsp;would return with a list of&amp;nbsp;&lt;/span&gt;&lt;strong style=&quot;font-size: 14px; font-family: &amp;quot;Open Sans&amp;quot;, sans-serif; background-color: rgb(255, 255, 255);&quot;&gt;Resources&lt;/strong&gt;&lt;span style=&quot;font-size: 14px; font-family: &amp;quot;Open Sans&amp;quot;, sans-serif; background-color: rgb(255, 255, 255);&quot;&gt;&amp;nbsp;which are ready for IO operation, the reactor would call each of the resources matching registered&amp;nbsp;&lt;/span&gt;&lt;strong style=&quot;font-size: 14px; font-family: &amp;quot;Open Sans&amp;quot;, sans-serif; background-color: rgb(255, 255, 255);&quot;&gt;Event Handler&lt;/strong&gt;&lt;span style=&quot;font-size: 14px; background-color: initial;&quot;&gt;.&lt;/span&gt;&lt;/font&gt;&lt;/div&gt;&lt;font color=&quot;#bfbfbf&quot;&gt;&lt;font style=&quot;font-size: 14px;&quot;&gt;&lt;div style=&quot;text-align: left;&quot;&gt;&lt;span style=&quot;background-color: initial;&quot;&gt;+ block on event =&amp;nbsp; select():&lt;/span&gt;&lt;span style=&quot;font-family: &amp;quot;Open Sans&amp;quot;, sans-serif; background-color: rgb(255, 255, 255);&quot;&gt;Event&lt;/span&gt;&lt;/div&gt;&lt;/font&gt;&lt;span style=&quot;font-family: &amp;quot;Open Sans&amp;quot;, sans-serif; background-color: rgb(255, 255, 255); font-size: 14px;&quot;&gt;&lt;div style=&quot;text-align: left;&quot;&gt;;&lt;/div&gt;&lt;font style=&quot;font-size: 14px;&quot;&gt;&lt;div style=&quot;text-align: left;&quot;&gt;+ for h in hadlers: h.handleEvent(Event)&amp;nbsp;&amp;nbsp;&lt;/div&gt;&lt;/font&gt;&lt;/span&gt;&lt;/font&gt;" style="shape=note;size=20;whiteSpace=wrap;html=1;" parent="1" vertex="1">
          <mxGeometry x="600" y="310" width="320" height="215" as="geometry" />
        </mxCell>
        <mxCell id="Uy60rt149ztIAtctRhgy-33" style="edgeStyle=orthogonalEdgeStyle;rounded=0;orthogonalLoop=1;jettySize=auto;html=1;entryX=0.5;entryY=0;entryDx=0;entryDy=0;" parent="1" source="Uy60rt149ztIAtctRhgy-32" target="Uy60rt149ztIAtctRhgy-20" edge="1">
          <mxGeometry relative="1" as="geometry" />
        </mxCell>
        <mxCell id="Uy60rt149ztIAtctRhgy-41" style="edgeStyle=orthogonalEdgeStyle;rounded=0;orthogonalLoop=1;jettySize=auto;html=1;entryX=0;entryY=0.5;entryDx=0;entryDy=0;fillColor=#f8cecc;strokeColor=#b85450;" parent="1" source="Uy60rt149ztIAtctRhgy-34" target="Uy60rt149ztIAtctRhgy-12" edge="1">
          <mxGeometry relative="1" as="geometry" />
        </mxCell>
        <mxCell id="Uy60rt149ztIAtctRhgy-42" value="set interface" style="edgeLabel;html=1;align=center;verticalAlign=middle;resizable=0;points=[];" parent="Uy60rt149ztIAtctRhgy-41" connectable="0" vertex="1">
          <mxGeometry x="-0.3101" relative="1" as="geometry">
            <mxPoint as="offset" />
          </mxGeometry>
        </mxCell>
        <mxCell id="Uy60rt149ztIAtctRhgy-34" value="&lt;p style=&quot;margin:0px;margin-top:4px;text-align:center;&quot;&gt;&lt;b&gt;LocalWebClient (Reactjs/htmx)&lt;/b&gt;&lt;/p&gt;&lt;hr size=&quot;1&quot;&gt;&lt;p style=&quot;margin:0px;margin-left:4px;&quot;&gt;+ localEndpoint: URL&lt;/p&gt;&lt;hr size=&quot;1&quot;&gt;&lt;p style=&quot;margin:0px;margin-left:4px;&quot;&gt;+ post(iface): type&lt;br&gt;&lt;/p&gt;&lt;p style=&quot;margin:0px;margin-left:4px;&quot;&gt;+ get(): Iface[]&lt;/p&gt;" style="verticalAlign=top;align=left;overflow=fill;fontSize=12;fontFamily=Helvetica;html=1;whiteSpace=wrap;" parent="1" vertex="1">
          <mxGeometry x="30" y="545" width="160" height="115" as="geometry" />
        </mxCell>
        <mxCell id="Uy60rt149ztIAtctRhgy-39" value="&lt;p style=&quot;margin:0px;margin-top:4px;text-align:center;&quot;&gt;&lt;b&gt;ExternalEventHandler&lt;/b&gt;&lt;/p&gt;&lt;hr size=&quot;1&quot;&gt;&lt;p style=&quot;margin:0px;margin-left:4px;&quot;&gt;+ aasServerUrl: Type&lt;/p&gt;&lt;hr size=&quot;1&quot;&gt;&lt;p style=&quot;margin:0px;margin-left:4px;&quot;&gt;+ method(): Type&lt;/p&gt;" style="verticalAlign=top;align=left;overflow=fill;fontSize=12;fontFamily=Helvetica;html=1;whiteSpace=wrap;" parent="1" vertex="1">
          <mxGeometry x="1210" y="990" width="160" height="100" as="geometry" />
        </mxCell>
        <mxCell id="Uy60rt149ztIAtctRhgy-40" value="" style="endArrow=block;dashed=1;endFill=0;endSize=12;html=1;rounded=0;entryX=0.5;entryY=1;entryDx=0;entryDy=0;exitX=0.5;exitY=0;exitDx=0;exitDy=0;" parent="1" source="Uy60rt149ztIAtctRhgy-39" target="Uy60rt149ztIAtctRhgy-15" edge="1">
          <mxGeometry width="160" relative="1" as="geometry">
            <mxPoint x="1110" y="1030" as="sourcePoint" />
            <mxPoint x="1158" y="925" as="targetPoint" />
          </mxGeometry>
        </mxCell>
        <mxCell id="Uy60rt149ztIAtctRhgy-43" value="" style="endArrow=diamondThin;endFill=0;endSize=24;html=1;rounded=0;" parent="1" source="Uy60rt149ztIAtctRhgy-19" edge="1">
          <mxGeometry width="160" relative="1" as="geometry">
            <mxPoint x="840" y="820" as="sourcePoint" />
            <mxPoint x="1000" y="820" as="targetPoint" />
          </mxGeometry>
        </mxCell>
        <mxCell id="Uy60rt149ztIAtctRhgy-44" value="" style="endArrow=diamondThin;endFill=0;endSize=24;html=1;rounded=0;entryX=0;entryY=0.25;entryDx=0;entryDy=0;exitX=1.006;exitY=0.333;exitDx=0;exitDy=0;exitPerimeter=0;" parent="1" source="Uy60rt149ztIAtctRhgy-12" target="Uy60rt149ztIAtctRhgy-20" edge="1">
          <mxGeometry width="160" relative="1" as="geometry">
            <mxPoint x="840" y="820" as="sourcePoint" />
            <mxPoint x="1000" y="820" as="targetPoint" />
            <Array as="points" />
          </mxGeometry>
        </mxCell>
        <mxCell id="Uy60rt149ztIAtctRhgy-19" value="&lt;p style=&quot;margin:0px;margin-top:4px;text-align:center;&quot;&gt;&lt;i style=&quot;border-color: var(--border-color);&quot;&gt;&amp;lt;&amp;lt;Interface&amp;gt;&amp;gt;&lt;/i&gt;&lt;br style=&quot;border-color: var(--border-color);&quot;&gt;&lt;b&gt;Handle&lt;/b&gt;&lt;/p&gt;&lt;hr size=&quot;1&quot;&gt;&lt;p style=&quot;margin:0px;margin-left:4px;&quot;&gt;&lt;/p&gt;&lt;p style=&quot;margin:0px;margin-left:4px;&quot;&gt;+ socket&lt;/p&gt;&lt;p style=&quot;margin:0px;margin-left:4px;&quot;&gt;+ mutex&lt;/p&gt;&lt;p style=&quot;margin:0px;margin-left:4px;&quot;&gt;+ timer&lt;/p&gt;&lt;p style=&quot;margin:0px;margin-left:4px;&quot;&gt;+ DB&lt;/p&gt;" style="verticalAlign=top;align=left;overflow=fill;fontSize=12;fontFamily=Helvetica;html=1;whiteSpace=wrap;" parent="1" vertex="1">
          <mxGeometry x="870" y="810" width="130" height="120" as="geometry" />
        </mxCell>
        <mxCell id="Uy60rt149ztIAtctRhgy-45" value="" style="endArrow=diamondThin;endFill=0;endSize=24;html=1;rounded=0;entryX=0.5;entryY=0;entryDx=0;entryDy=0;exitX=0.5;exitY=1;exitDx=0;exitDy=0;" parent="1" source="Uy60rt149ztIAtctRhgy-12" target="Uy60rt149ztIAtctRhgy-21" edge="1">
          <mxGeometry width="160" relative="1" as="geometry">
            <mxPoint x="530" y="705" as="sourcePoint" />
            <mxPoint x="719" y="740" as="targetPoint" />
            <Array as="points" />
          </mxGeometry>
        </mxCell>
        <mxCell id="Uy60rt149ztIAtctRhgy-50" style="edgeStyle=orthogonalEdgeStyle;rounded=0;orthogonalLoop=1;jettySize=auto;html=1;entryX=1;entryY=0.25;entryDx=0;entryDy=0;" parent="1" source="Uy60rt149ztIAtctRhgy-47" target="Uy60rt149ztIAtctRhgy-19" edge="1">
          <mxGeometry relative="1" as="geometry" />
        </mxCell>
        <mxCell id="Uy60rt149ztIAtctRhgy-47" value="&lt;font color=&quot;#ababab&quot;&gt;&lt;strong style=&quot;border-color: var(--border-color); font-family: &amp;quot;Open Sans&amp;quot;, sans-serif; background-color: rgb(255, 255, 255);&quot;&gt;Handles (Resources)&lt;/strong&gt;&amp;nbsp;- OS Resources that can give input, or consume output. For example: files, sockets, timers, synchronization objects, etc.&lt;/font&gt;" style="shape=note;size=20;whiteSpace=wrap;html=1;align=left;" parent="1" vertex="1">
          <mxGeometry x="1370" y="570" width="170" height="120" as="geometry" />
        </mxCell>
        <mxCell id="Uy60rt149ztIAtctRhgy-48" value="" style="endArrow=block;dashed=1;endFill=0;endSize=12;html=1;rounded=0;entryX=0.25;entryY=1;entryDx=0;entryDy=0;exitX=0.5;exitY=0;exitDx=0;exitDy=0;" parent="1" source="Uy60rt149ztIAtctRhgy-11" target="Uy60rt149ztIAtctRhgy-19" edge="1">
          <mxGeometry width="160" relative="1" as="geometry">
            <mxPoint x="772" y="1040" as="sourcePoint" />
            <mxPoint x="850" y="950" as="targetPoint" />
          </mxGeometry>
        </mxCell>
        <mxCell id="Uy60rt149ztIAtctRhgy-52" value="Submodels" style="shape=cylinder3;whiteSpace=wrap;html=1;boundedLbl=1;backgroundOutline=1;size=15;" parent="1" vertex="1">
          <mxGeometry x="940" y="1000" width="120" height="70" as="geometry" />
        </mxCell>
        <mxCell id="Uy60rt149ztIAtctRhgy-53" value="" style="endArrow=block;dashed=1;endFill=0;endSize=12;html=1;rounded=0;entryX=0.75;entryY=1;entryDx=0;entryDy=0;exitX=0.5;exitY=0;exitDx=0;exitDy=0;exitPerimeter=0;" parent="1" source="Uy60rt149ztIAtctRhgy-52" target="Uy60rt149ztIAtctRhgy-19" edge="1">
          <mxGeometry width="160" relative="1" as="geometry">
            <mxPoint x="775" y="1120" as="sourcePoint" />
            <mxPoint x="939" y="936" as="targetPoint" />
          </mxGeometry>
        </mxCell>
        <mxCell id="Uy60rt149ztIAtctRhgy-54" style="edgeStyle=orthogonalEdgeStyle;rounded=0;orthogonalLoop=1;jettySize=auto;html=1;entryX=1;entryY=0.5;entryDx=0;entryDy=0;entryPerimeter=0;exitX=0;exitY=0.5;exitDx=0;exitDy=0;" parent="1" source="Uy60rt149ztIAtctRhgy-39" target="Uy60rt149ztIAtctRhgy-52" edge="1">
          <mxGeometry relative="1" as="geometry" />
        </mxCell>
        <mxCell id="Uy60rt149ztIAtctRhgy-55" value="updateIs Iface" style="edgeLabel;html=1;align=center;verticalAlign=middle;resizable=0;points=[];" parent="Uy60rt149ztIAtctRhgy-54" connectable="0" vertex="1">
          <mxGeometry x="0.16" y="1" relative="1" as="geometry">
            <mxPoint as="offset" />
          </mxGeometry>
        </mxCell>
        <mxCell id="Uy60rt149ztIAtctRhgy-60" value="&lt;p style=&quot;margin:0px;margin-top:4px;text-align:center;&quot;&gt;&lt;b&gt;curl&lt;/b&gt;&lt;/p&gt;&lt;hr size=&quot;1&quot;&gt;&lt;p style=&quot;margin:0px;margin-left:4px;&quot;&gt;+ localEndpoint: URL&lt;/p&gt;&lt;hr size=&quot;1&quot;&gt;&lt;p style=&quot;margin:0px;margin-left:4px;&quot;&gt;+ post(iface): type&lt;br&gt;&lt;/p&gt;&lt;p style=&quot;margin:0px;margin-left:4px;&quot;&gt;+ get(): Iface[]&lt;/p&gt;" style="verticalAlign=top;align=left;overflow=fill;fontSize=12;fontFamily=Helvetica;html=1;whiteSpace=wrap;" parent="1" vertex="1">
          <mxGeometry x="30" y="685" width="160" height="115" as="geometry" />
        </mxCell>
        <mxCell id="Uy60rt149ztIAtctRhgy-61" value="/etc/interfaces" style="shape=cylinder3;whiteSpace=wrap;html=1;boundedLbl=1;backgroundOutline=1;size=15;" parent="1" vertex="1">
          <mxGeometry x="1070" y="900" width="120" height="70" as="geometry" />
        </mxCell>
        <mxCell id="Uy60rt149ztIAtctRhgy-62" value="" style="endArrow=block;dashed=1;endFill=0;endSize=12;html=1;rounded=0;exitX=0;exitY=0.5;exitDx=0;exitDy=0;exitPerimeter=0;" parent="1" source="Uy60rt149ztIAtctRhgy-61" edge="1">
          <mxGeometry width="160" relative="1" as="geometry">
            <mxPoint x="1032" y="970" as="sourcePoint" />
            <mxPoint x="1000" y="900" as="targetPoint" />
          </mxGeometry>
        </mxCell>
        <mxCell id="Uy60rt149ztIAtctRhgy-63" style="edgeStyle=orthogonalEdgeStyle;rounded=0;orthogonalLoop=1;jettySize=auto;html=1;entryX=0;entryY=0.25;entryDx=0;entryDy=0;exitX=0.5;exitY=1;exitDx=0;exitDy=0;exitPerimeter=0;fillColor=#f8cecc;strokeColor=#b85450;" parent="1" source="Uy60rt149ztIAtctRhgy-61" target="Uy60rt149ztIAtctRhgy-14" edge="1">
          <mxGeometry relative="1" as="geometry">
            <mxPoint x="1220" y="1045" as="sourcePoint" />
            <mxPoint x="1070" y="1045" as="targetPoint" />
          </mxGeometry>
        </mxCell>
        <mxCell id="Uy60rt149ztIAtctRhgy-64" value="set Iface" style="edgeLabel;html=1;align=center;verticalAlign=middle;resizable=0;points=[];" parent="Uy60rt149ztIAtctRhgy-63" connectable="0" vertex="1">
          <mxGeometry x="0.16" y="1" relative="1" as="geometry">
            <mxPoint as="offset" />
          </mxGeometry>
        </mxCell>
        <mxCell id="Uy60rt149ztIAtctRhgy-65" style="edgeStyle=orthogonalEdgeStyle;rounded=0;orthogonalLoop=1;jettySize=auto;html=1;exitX=1;exitY=0.207;exitDx=0;exitDy=0;exitPerimeter=0;entryX=0;entryY=0.75;entryDx=0;entryDy=0;fillColor=#f8cecc;strokeColor=#b85450;" parent="1" source="Uy60rt149ztIAtctRhgy-11" target="Uy60rt149ztIAtctRhgy-39" edge="1">
          <mxGeometry relative="1" as="geometry">
            <mxPoint x="1220" y="1045" as="sourcePoint" />
            <mxPoint x="1210" y="1060" as="targetPoint" />
            <Array as="points">
              <mxPoint x="1065" y="1139" />
              <mxPoint x="1065" y="1120" />
              <mxPoint x="1090" y="1120" />
              <mxPoint x="1090" y="1070" />
              <mxPoint x="1210" y="1070" />
            </Array>
          </mxGeometry>
        </mxCell>
        <mxCell id="Uy60rt149ztIAtctRhgy-66" value="updateIs Iface" style="edgeLabel;html=1;align=center;verticalAlign=middle;resizable=0;points=[];" parent="Uy60rt149ztIAtctRhgy-65" connectable="0" vertex="1">
          <mxGeometry x="0.16" y="1" relative="1" as="geometry">
            <mxPoint as="offset" />
          </mxGeometry>
        </mxCell>
        <mxCell id="Uy60rt149ztIAtctRhgy-67" style="edgeStyle=orthogonalEdgeStyle;rounded=0;orthogonalLoop=1;jettySize=auto;html=1;entryX=1;entryY=0.5;entryDx=0;entryDy=0;fillColor=#f8cecc;strokeColor=#b85450;" parent="1" source="Uy60rt149ztIAtctRhgy-11" target="Uy60rt149ztIAtctRhgy-56" edge="1">
          <mxGeometry relative="1" as="geometry" />
        </mxCell>
        <mxCell id="Uy60rt149ztIAtctRhgy-68" value="poll interface" style="edgeLabel;html=1;align=center;verticalAlign=middle;resizable=0;points=[];" parent="Uy60rt149ztIAtctRhgy-67" connectable="0" vertex="1">
          <mxGeometry x="0.3227" y="1" relative="1" as="geometry">
            <mxPoint as="offset" />
          </mxGeometry>
        </mxCell>
        <mxCell id="Uy60rt149ztIAtctRhgy-69" value="&lt;p style=&quot;margin:0px;margin-top:4px;text-align:center;&quot;&gt;&lt;b&gt;EtcFileEventHandler&lt;/b&gt;&lt;/p&gt;&lt;hr size=&quot;1&quot;&gt;&lt;p style=&quot;margin:0px;margin-left:4px;&quot;&gt;+ filename: Type&lt;/p&gt;&lt;hr size=&quot;1&quot;&gt;&lt;p style=&quot;margin:0px;margin-left:4px;&quot;&gt;+ method(): Type&lt;/p&gt;" style="verticalAlign=top;align=left;overflow=fill;fontSize=12;fontFamily=Helvetica;html=1;whiteSpace=wrap;" parent="1" vertex="1">
          <mxGeometry x="1560" y="1130" width="170" height="100" as="geometry" />
        </mxCell>
        <mxCell id="Uy60rt149ztIAtctRhgy-70" value="" style="endArrow=block;dashed=1;endFill=0;endSize=12;html=1;rounded=0;entryX=0.75;entryY=1;entryDx=0;entryDy=0;exitX=0.5;exitY=0;exitDx=0;exitDy=0;" parent="1" source="Uy60rt149ztIAtctRhgy-69" target="Uy60rt149ztIAtctRhgy-15" edge="1">
          <mxGeometry width="160" relative="1" as="geometry">
            <mxPoint x="1375" y="1140" as="sourcePoint" />
            <mxPoint x="1593" y="950" as="targetPoint" />
          </mxGeometry>
        </mxCell>
        <mxCell id="Uy60rt149ztIAtctRhgy-71" value="Django.py" style="text;html=1;strokeColor=#d79b00;fillColor=#ffe6cc;align=center;verticalAlign=middle;whiteSpace=wrap;rounded=0;" parent="1" vertex="1">
          <mxGeometry x="510" y="515" width="60" height="30" as="geometry" />
        </mxCell>
        <mxCell id="Uy60rt149ztIAtctRhgy-72" value="view.py" style="text;html=1;strokeColor=#d79b00;fillColor=#ffe6cc;align=center;verticalAlign=middle;whiteSpace=wrap;rounded=0;" parent="1" vertex="1">
          <mxGeometry x="570" y="780" width="60" height="30" as="geometry" />
        </mxCell>
        <mxCell id="Uy60rt149ztIAtctRhgy-73" value="httpClient.py" style="text;html=1;strokeColor=#d79b00;fillColor=#ffe6cc;align=center;verticalAlign=middle;whiteSpace=wrap;rounded=0;" parent="1" vertex="1">
          <mxGeometry x="670" y="1070" width="60" height="30" as="geometry" />
        </mxCell>
        <mxCell id="Uy60rt149ztIAtctRhgy-74" value="model.py" style="text;html=1;strokeColor=#d79b00;fillColor=#ffe6cc;align=center;verticalAlign=middle;whiteSpace=wrap;rounded=0;" parent="1" vertex="1">
          <mxGeometry x="920" y="970" width="60" height="30" as="geometry" />
        </mxCell>
        <mxCell id="Uy60rt149ztIAtctRhgy-75" value="FileIO.py" style="text;html=1;strokeColor=#d79b00;fillColor=#ffe6cc;align=center;verticalAlign=middle;whiteSpace=wrap;rounded=0;" parent="1" vertex="1">
          <mxGeometry x="1200" y="900" width="60" height="30" as="geometry" />
        </mxCell>
        <mxCell id="Uy60rt149ztIAtctRhgy-76" value="XXhandler.py" style="text;html=1;strokeColor=#d79b00;fillColor=#ffe6cc;align=center;verticalAlign=middle;whiteSpace=wrap;rounded=0;" parent="1" vertex="1">
          <mxGeometry x="1580" y="760" width="60" height="30" as="geometry" />
        </mxCell>
        <mxCell id="Uy60rt149ztIAtctRhgy-77" value="reactor.py" style="text;html=1;strokeColor=#d79b00;fillColor=#ffe6cc;align=center;verticalAlign=middle;whiteSpace=wrap;rounded=0;" parent="1" vertex="1">
          <mxGeometry x="1010" y="570" width="60" height="30" as="geometry" />
        </mxCell>
      </root>
    </mxGraphModel>
  </diagram>
</mxfile>
